{"asset":{"version":"2.0","generator":"VECTARY"},"nodes":[{"translation":[0,0,0],"rotation":[-0.7071067811865475,0,0,0.7071067811865476],"scale":[0.001,0.001,0.001],"name":"Layer 1","mesh":0}],"meshes":[{"primitives":[{"mode":4,"attributes":{"POSITION":0,"NORMAL":1}}]}],"accessors":[{"bufferView":0,"byteOffset":0,"componentType":5126,"count":109440,"max":[10000000,10000000,10000000],"min":[-10000000,-10000000,-10000000],"type":"VEC3"},{"bufferView":1,"byteOffset":0,"componentType":5126,"count":109440,"max":[1,1,1],"min":[-1,-1,-1],"type":"VEC3"}],"bufferViews":[{"buffer":0,"byteOffset":0,"byteLength":1313280,"target":34962},{"buffer":0,"byteOffset":1313280,"byteLength":1313280,"target":34962}],"scenes":[{"nodes":[0],"name":"Project Name"}],"buffers":[{"byteLength":2626560,"uri":"Project Name.bin"}]}